<?xml version="1.0" encoding="utf-8"?>
<!-- Generator: Adobe Illustrator 23.0.1, SVG Export Plug-In . SVG Version: 6.00 Build 0)  -->
<svg version="1.1" id="Layer_1" xmlns="http://www.w3.org/2000/svg" xmlns:xlink="http://www.w3.org/1999/xlink" x="0px" y="0px"
	 viewBox="0 0 1366 768" style="enable-background:new 0 0 1366 768;" xml:space="preserve">
<style type="text/css">
	.st0{fill:url(#SVGID_1_);}
</style>
<linearGradient id="SVGID_1_" gradientUnits="userSpaceOnUse" x1="991.856" y1="191.4348" x2="148.292" y2="717.8926">
	<stop  offset="5.586592e-03" style="stop-color:#11F79F"/>
	<stop  offset="0.9721" style="stop-color:#1CD1BF"/>
	<stop  offset="1" style="stop-color:#1BD4BD"/>
</linearGradient>
<path class="st0" d="M-0.5,0.5h800c0,0-9,132,279,132s287,128,287,128v508c0,0-1011.23,0-1176.33,0c-3.67,0-6.92,0-9.73,0
	c-2.81,4.38-5.19,3-7.1,0c-1.92-1.85-3.37-10.15-4.35,0c-0.98,12.69-1.48,2.48-1.48,0c0,7.4-2.97-9.82-8.11-0.2
	c-2.57,6.92-5.69,1.16-9.25-0.58c-3.56-1.06-7.57-1.34-11.93-1.26c-4.35-27.19-9.06-4.22-14,1.49c-4.95,6.9-10.14-4.19-15.49-6.81
	c-2-2.77-4.03-16.69-6.07-15.06c-2.04-3.51-4.1-9.15-6.16,11.66c-2.07,2.51-4.14-1.56-6.23,4.54c-2.08,6.28-4.17-0.03-6.26-8.53
	c-2.09,2.99-4.18-0.97-6.26-8.2c-2.08,0.38-4.16,2.29-6.23,1.01c-4.13,11.81-8.22-4.17-12.23-3.98c-4.01,7.31-7.93-36.35-11.73-2.6
	c-3.8,14.52-7.47,32.67-10.98-13.13c-3.51-16.62-6.85-32.44-9.98-10.59c-3.13,15.71-6.05-4.31-8.73-10.48
	c-2.67-30.07-5.09-16.8-7.22-12.78c-2.13-11.74-3.97,3.82-5.47-14.41c-1.5,7.46-2.67,5.45-3.47-16.13
	c-0.79-16.26-1.21-17.7-1.21-17.96c0-3.03,0-16.56,0-15.57c0-3.71,0-11.88,0-18.52C-0.5,444.6-0.5,0.5-0.5,0.5z"/>
</svg>
